<svg width="29" height="26" viewBox="0 0 29 26" fill="none" xmlns="http://www.w3.org/2000/svg">
<path fill-rule="evenodd" clip-rule="evenodd" d="M27.9075 0C27.0049 0.0200834 26.1 0.0582419 25.1934 0.12532L25.3332 2.34735C26.204 2.28422 27.0763 2.24364 27.9493 2.22564L27.9075 0ZM23.0975 0.329367C21.7037 0.502486 20.2979 0.749111 18.9081 1.14556L19.4315 3.2989C20.6943 2.939 22.003 2.70644 23.3321 2.54135L23.0975 0.329367ZM16.8271 1.89105C16.4106 2.07484 16.0075 2.2873 15.6205 2.52689L15.6189 2.5289L15.6164 2.5297C15.0641 2.87755 14.4821 3.31898 14.007 3.96044C13.6627 4.42517 13.3812 5.01282 13.3153 5.7077L15.3618 5.93464C15.377 5.77157 15.4606 5.55627 15.6108 5.35383H15.6116V5.35303C15.8538 5.02527 16.2169 4.72763 16.6487 4.4553L16.6503 4.4545C16.9583 4.26493 17.2788 4.09638 17.6095 3.95L16.8271 1.89105ZM15.7735 6.92596L14.4468 8.62702C14.7613 8.91462 15.0911 9.13553 15.4096 9.3203L15.4136 9.32231L15.4176 9.32472C16.4748 9.92601 17.5649 10.2654 18.5755 10.5876L19.1563 8.45149C18.1461 8.12935 17.1938 7.81846 16.3776 7.35494C16.1438 7.21918 15.939 7.07739 15.7735 6.92596ZM21.1297 9.05239L20.5626 11.1921L20.8309 11.2756L21.1603 11.3809C22.2504 11.7355 23.2947 12.1143 24.2282 12.6385L25.1753 10.6623C24.0466 10.028 22.875 9.61352 21.7459 9.24639L21.7427 9.24559L21.4045 9.13754L21.1297 9.05239ZM27.1013 12.1452L25.6461 13.7198C25.9899 14.0921 26.2474 14.54 26.3727 15.0027L26.3735 15.0051L26.3743 15.0087C26.5237 15.549 26.5241 16.1844 26.4072 16.8263L28.4252 17.2569C28.5899 16.3507 28.6164 15.3558 28.3457 14.3737C28.1099 13.5053 27.66 12.7509 27.1013 12.1452ZM25.7027 18.1678C25.48 18.4024 25.2343 18.6139 24.9693 18.7993H24.9685C24.2455 19.3078 23.4068 19.691 22.5159 20.0203L23.1803 22.1267C24.1547 21.7664 25.1553 21.3245 26.0903 20.6666L26.0927 20.6646L26.0939 20.6638C26.4779 20.3948 26.8331 20.087 27.1539 19.7452L25.7027 18.1678ZM20.6256 20.6136C19.3351 20.9606 18.016 21.2249 16.6809 21.4491L16.9958 23.6498C18.3699 23.4188 19.7496 23.1429 21.1209 22.7742L20.6256 20.6136ZM14.6721 21.7527C13.3281 21.9363 11.9769 22.0861 10.6217 22.2138L10.7992 24.4318C12.1754 24.3025 13.5539 24.1503 14.9304 23.9619L14.6721 21.7527ZM8.58485 22.3886C7.22681 22.4962 5.86556 22.5838 4.5031 22.6577L4.60593 24.8813C5.98164 24.807 7.35855 24.7182 8.73507 24.609L8.58485 22.3886ZM2.4558 22.7581C1.63921 22.7963 0.820607 22.8276 0 22.8565L0.0674807 25.0821C0.893217 25.0538 1.71879 25.0208 2.54416 24.9833L2.4558 22.7581Z" fill="black"/>
</svg>
